HIERARCHY
ROOT Hips
{
	OFFSET 0.000000 0.000000 0.000000
	CHANNELS 6 Xposition Yposition Zposition Zrotation Yrotation Xrotation 
	JOINT LeftUpLeg_virtual
	{
		OFFSET 0.000000 0.000000 0.000000
		CHANNELS 3 Zrotation Yrotation Xrotation
		JOINT LeftUpLeg
		{
			OFFSET 8.479694 -4.795517 -0.379053
			CHANNELS 3 Zrotation Yrotation Xrotation
			JOINT LeftLeg
			{
				OFFSET 0.485052 -32.551468 0.112863
				CHANNELS 3 Zrotation Yrotation Xrotation
				JOINT LeftFoot
				{
					OFFSET 0.438033 -32.635670 -3.012641
					CHANNELS 3 Zrotation Yrotation Xrotation
					JOINT LeftToeBase
					{
						OFFSET 0.970169 -13.225353 11.864223
						CHANNELS 3 Zrotation Yrotation Xrotation
						End Site
						{
							OFFSET 0.000000 0.000000 0.000000
						}
					}
				}
			}
		}
	}
	JOINT RightUpLeg_virtual
	{
		OFFSET 0.000000 0.000000 0.000000
		CHANNELS 3 Zrotation Yrotation Xrotation
		JOINT RightUpLeg
		{
			OFFSET -8.479694 -4.795517 -0.379053
			CHANNELS 3 Zrotation Yrotation Xrotation
			JOINT RightLeg
			{
				OFFSET -0.484100 -32.551483 0.112903
				CHANNELS 3 Zrotation Yrotation Xrotation
				JOINT RightFoot
				{
					OFFSET -0.438985 -32.635651 -3.012681
					CHANNELS 3 Zrotation Yrotation Xrotation
					JOINT RightToeBase
					{
						OFFSET -0.970169 -13.225354 11.864223
						CHANNELS 3 Zrotation Yrotation Xrotation
						End Site
						{
							OFFSET 0.000000 0.000000 0.000000
						}
					}
				}
			}
		}
	}
	JOINT Spine_virtual
	{
		OFFSET 0.000000 0.000000 0.000000
		CHANNELS 3 Zrotation Yrotation Xrotation
		JOINT Spine
		{
			OFFSET 0.000000 7.722015 1.166203
			CHANNELS 3 Zrotation Yrotation Xrotation
			JOINT Spine1
			{
				OFFSET 0.000000 12.024086 0.248766
				CHANNELS 3 Zrotation Yrotation Xrotation
				JOINT Spine2
				{
					OFFSET -0.000000 11.503036 -0.491240
					CHANNELS 3 Zrotation Yrotation Xrotation
					JOINT Neck_virtual
					{
						OFFSET 0.000000 0.000000 0.000000
						CHANNELS 3 Zrotation Yrotation Xrotation
						JOINT Neck
						{
							OFFSET 0.000000 18.430687 -3.123054
							CHANNELS 3 Zrotation Yrotation Xrotation
							JOINT Head
							{
								OFFSET -0.000000 9.051071 1.034021
								CHANNELS 3 Zrotation Yrotation Xrotation
								End Site
								{
									OFFSET 0.000000 0.000000 0.000000
								}
							}
						}
					}
					JOINT LeftShoulder_virtual
					{
						OFFSET 0.000000 0.000000 0.000000
						CHANNELS 3 Zrotation Yrotation Xrotation
						JOINT LeftShoulder
						{
							OFFSET 6.197824 13.665230 -4.064723
							CHANNELS 3 Zrotation Yrotation Xrotation
							JOINT LeftArm
							{
								OFFSET 7.778132 -0.187073 -1.709282
								CHANNELS 3 Zrotation Yrotation Xrotation
								JOINT LeftForeArm
								{
									OFFSET 21.954697 0.000000 -2.041093
									CHANNELS 3 Zrotation Yrotation Xrotation
									JOINT LeftHand
									{
										OFFSET 22.992908 0.000000 -0.870901
										CHANNELS 3 Zrotation Yrotation Xrotation
										End Site
										{
											OFFSET 0.000000 0.000000 0.000000
										}
									}
								}
							}
						}
					}
					JOINT RightShoulder_virtual
					{
						OFFSET 0.000000 0.000000 0.000000
						CHANNELS 3 Zrotation Yrotation Xrotation
						JOINT RightShoulder
						{
							OFFSET -6.197824 13.665230 -4.064723
							CHANNELS 3 Zrotation Yrotation Xrotation
							JOINT RightArm
							{
								OFFSET -7.778132 -0.187073 -1.709282
								CHANNELS 3 Zrotation Yrotation Xrotation
								JOINT RightForeArm
								{
									OFFSET -21.954697 0.000000 -2.041093
									CHANNELS 3 Zrotation Yrotation Xrotation
									JOINT RightHand
									{
										OFFSET -22.992908 0.000000 -0.870901
										CHANNELS 3 Zrotation Yrotation Xrotation
										End Site
										{
											OFFSET 0.000000 0.000000 0.000000
										}
									}
								}
							}
						}
					}
				}
			}
		}
	}
}
MOTION
Frames: 5
Frame Time: 0.033333
-110.886086 67.107742 -6.446031 178.505505 36.228167 178.519602 -3.275248 -0.680091 13.780521 0.494972 2.514423 -58.136145 7.189994 -3.987818 92.930782 -9.438761 -2.643278 -9.866197 0.000000 0.000000 0.000000 0.051323 -0.757991 14.501373 -3.666076 -3.974675 -65.752892 0.710631 -0.049532 70.852633 2.666258 8.207581 -2.574040 0.000000 0.000000 0.000000 4.388081 4.613733 8.927245 3.238685 4.132026 10.001806 0.243660 -2.963234 8.819129 0.113605 -0.055278 -0.085301 0.533763 -2.422912 11.139233 10.187774 -12.824789 -0.196586 0.000000 0.000000 0.000000 2.252414 -1.876081 6.803830 5.235927 -1.327004 3.176089 -65.677883 -62.798077 19.172049 28.045284 -74.255897 2.685735 0.000000 0.000000 0.000000 -2.029906 -0.068444 5.933649 19.025929 6.066281 7.422770 39.685954 45.125957 -26.958629 -157.780894 87.041697 -158.010129 0.000000 0.000000 0.000000 
-111.581200 68.844254 -6.826594 178.306077 37.476418 178.373956 -3.470647 -0.474735 13.883200 -0.681732 1.747001 -55.929574 7.105812 -3.137990 89.403092 -9.388761 -2.811605 -10.548313 0.000000 0.000000 0.000000 -0.010828 -0.962345 14.210898 -4.283824 -3.733562 -62.048252 0.392085 -0.186788 64.427925 4.416595 7.568115 0.017805 0.000000 0.000000 0.000000 4.704148 4.402486 8.105343 3.707469 4.153854 8.932286 0.142413 -3.033511 9.047019 0.128844 -0.079406 -0.129422 0.513380 -2.418354 11.139747 9.919094 -13.073884 -0.597863 0.000000 0.000000 0.000000 2.201042 -1.975863 6.875141 5.029854 -1.351029 3.245082 -68.157017 -60.365902 22.753920 27.121674 -73.459422 2.735699 0.000000 0.000000 0.000000 -2.043644 -0.004513 6.073802 17.542391 5.801551 7.626759 41.843935 40.617141 -22.602892 -169.692389 84.043688 -170.510181 0.000000 0.000000 0.000000 
-112.368095 70.555206 -7.145627 178.268374 39.013163 178.335010 -3.386152 -0.215443 14.447551 -1.102151 0.525277 -53.411710 6.652585 -2.702282 84.879280 -9.572614 -3.272840 -11.210414 0.000000 0.000000 0.000000 0.067499 -0.786226 14.017920 -5.336411 -2.802128 -58.403144 0.100311 -0.452423 57.678052 5.919907 6.931817 2.723387 0.000000 0.000000 0.000000 4.909703 4.662735 7.251665 4.175192 4.222433 7.709568 0.099178 -3.148258 9.281939 0.130343 -0.116575 -0.077832 0.487413 -2.397541 11.127622 9.750024 -13.297513 -1.057852 0.000000 0.000000 0.000000 2.130264 -1.973816 7.004254 4.924496 -1.275797 3.027770 -70.513541 -56.880863 26.549249 26.584751 -73.064951 2.417443 0.000000 0.000000 0.000000 -2.168130 0.058107 6.254050 16.071123 5.738130 7.836311 44.048430 35.544905 -18.041928 -173.849829 81.118851 -175.372593 0.000000 0.000000 0.000000 
-113.138237 72.213593 -7.491845 178.924004 40.402167 178.944358 -3.022462 0.553641 14.485708 -0.958076 -0.918487 -50.174829 6.265458 -2.666171 79.706948 -9.931466 -3.901577 -12.665288 0.000000 0.000000 0.000000 0.051113 -0.229965 13.814429 -6.351183 -1.956761 -54.923604 0.030843 -0.119782 51.151587 8.206078 7.378748 4.993308 0.000000 0.000000 0.000000 5.173366 5.038972 6.020966 4.728303 4.097320 6.288932 0.132345 -3.092178 9.480092 0.064480 -0.077835 -0.088270 0.490003 -2.368700 11.121200 9.685931 -13.581835 -1.264261 0.000000 0.000000 0.000000 2.022826 -1.894365 7.144594 4.825854 -1.003551 2.877872 -72.007747 -52.536135 29.663443 25.593858 -73.226089 2.572396 0.000000 0.000000 0.000000 -2.205075 0.079203 6.432891 14.757759 5.564193 7.981896 45.957051 29.994100 -13.110339 -175.590531 78.434737 -177.855968 0.000000 0.000000 0.000000 
-113.770706 73.824211 -7.901452 179.575577 41.713516 179.660736 -2.801219 1.425470 13.915942 -0.786127 -2.082996 -46.954351 5.958840 -2.639333 74.658517 -10.940602 -4.814002 -12.439569 0.000000 0.000000 0.000000 0.098201 0.533467 13.424377 -6.945159 -1.465698 -51.677484 0.059949 0.776373 45.232952 9.963694 7.846479 6.960930 0.000000 0.000000 0.000000 5.156085 5.377986 4.412090 5.034021 3.896790 4.680908 0.244928 -3.079145 9.644711 0.012913 0.044058 -0.056199 0.371364 -2.370757 11.274774 9.386383 -13.474629 -1.293035 0.000000 0.000000 0.000000 2.048708 -1.859168 7.250510 4.706029 -0.449772 2.729553 -72.834023 -47.202686 32.097996 25.626175 -73.651972 1.806439 0.000000 0.000000 0.000000 -2.238025 0.146038 6.730927 13.655854 5.315304 7.980141 47.774383 24.526955 -8.220410 -176.680014 76.081122 -179.646912 0.000000 0.000000 0.000000 
